<svg width="1349" height="651" xmlns="http://www.w3.org/2000/svg"><g><path d="M-59,-60L-80,37L52,46Z" fill="#b5691d" stroke="#b5691d"/><path d="M-59,-60L52,46L86,-42Z" fill="#b5661c" stroke="#b5661c"/><path d="M-59,-60L86,-42L186,-94Z" fill="#af5a1a" stroke="#af5a1a"/><path d="M86,-42L52,46L160,59Z" fill="#c5863a" stroke="#c5863a"/><path d="M86,-42L160,59L186,-94Z" fill="#c0792e" stroke="#c0792e"/><path d="M186,-94L160,59L284,-79Z" fill="#c47f35" stroke="#c47f35"/><path d="M186,-94L284,-79L445,-78Z" fill="#c27947" stroke="#c27947"/><path d="M186,-94L445,-78L907,-85Z" fill="#ca8c75" stroke="#ca8c75"/><path d="M186,-94L907,-85L1262,-85Z" fill="#957b63" stroke="#957b63"/><path d="M284,-79L160,59L267,79Z" fill="#d49e53" stroke="#d49e53"/><path d="M284,-79L267,79L448,63Z" fill="#daaa67" stroke="#daaa67"/><path d="M284,-79L448,63L445,-78Z" fill="#d1985e" stroke="#d1985e"/><path d="M445,-78L448,63L551,-45Z" fill="#d7a676" stroke="#d7a676"/><path d="M445,-78L551,-45L641,-53Z" fill="#cf9a7a" stroke="#cf9a7a"/><path d="M445,-78L641,-53L907,-85Z" fill="#b38b6f" stroke="#b38b6f"/><path d="M551,-45L448,63L534,83Z" fill="#e4c194" stroke="#e4c194"/><path d="M551,-45L534,83L641,-53Z" fill="#d5b087" stroke="#d5b087"/><path d="M641,-53L534,83L684,66Z" fill="#d3bd93" stroke="#d3bd93"/><path d="M641,-53L684,66L797,-35Z" fill="#b8a479" stroke="#b8a479"/><path d="M641,-53L797,-35L907,-85Z" fill="#9d8963" stroke="#9d8963"/><path d="M797,-35L684,66L775,50Z" fill="#b6b184" stroke="#b6b184"/><path d="M797,-35L775,50L890,53Z" fill="#a6a97b" stroke="#a6a97b"/><path d="M797,-35L890,53L907,-85Z" fill="#918f60" stroke="#918f60"/><path d="M907,-85L890,53L1017,59Z" fill="#879363" stroke="#879363"/><path d="M907,-85L1017,59L1043,-58Z" fill="#737c4b" stroke="#737c4b"/><path d="M907,-85L1043,-58L1139,-78Z" fill="#5f6240" stroke="#5f6240"/><path d="M907,-85L1139,-78L1262,-85Z" fill="#515435" stroke="#515435"/><path d="M1043,-58L1017,59L1151,35Z" fill="#688351" stroke="#688351"/><path d="M1043,-58L1151,35L1139,-78Z" fill="#5c6937" stroke="#5c6937"/><path d="M1139,-78L1151,35L1262,-85Z" fill="#5a5b29" stroke="#5a5b29"/><path d="M1262,-85L1151,35L1294,68Z" fill="#656a36" stroke="#656a36"/><path d="M1262,-85L1294,68L1410,-27Z" fill="#605520" stroke="#605520"/><path d="M1262,-85L1410,-27L1468,-52Z" fill="#573c0c" stroke="#573c0c"/><path d="M1410,-27L1294,68L1360,87Z" fill="#6d6a34" stroke="#6d6a34"/><path d="M1410,-27L1360,87L1522,71Z" fill="#6d6129" stroke="#6d6129"/><path d="M1410,-27L1522,71L1468,-52Z" fill="#634811" stroke="#634811"/><path d="M-80,37L-88,173L52,46Z" fill="#c5893d" stroke="#c5893d"/><path d="M52,46L-88,173L93,148Z" fill="#d3a458" stroke="#d3a458"/><path d="M52,46L93,148L160,59Z" fill="#d3a256" stroke="#d3a256"/><path d="M160,59L93,148L170,154Z" fill="#e0b96d" stroke="#e0b96d"/><path d="M160,59L170,154L267,79Z" fill="#e1ba6e" stroke="#e1ba6e"/><path d="M267,79L170,154L266,196Z" fill="#eccf88" stroke="#eccf88"/><path d="M267,79L266,196L426,167Z" fill="#f1db9b" stroke="#f1db9b"/><path d="M267,79L426,167L448,63Z" fill="#eed396" stroke="#eed396"/><path d="M448,63L426,167L530,165Z" fill="#f7e7b6" stroke="#f7e7b6"/><path d="M448,63L530,165L534,83Z" fill="#f3dfb2" stroke="#f3dfb2"/><path d="M534,83L530,165L653,163Z" fill="#f3ecc5" stroke="#f3ecc5"/><path d="M534,83L653,163L684,66Z" fill="#e3ddb2" stroke="#e3ddb2"/><path d="M684,66L653,163L759,178Z" fill="#d8e3b8" stroke="#d8e3b8"/><path d="M684,66L759,178L775,50Z" fill="#c8d1a4" stroke="#c8d1a4"/><path d="M775,50L759,178L890,53Z" fill="#b8ca9b" stroke="#b8ca9b"/><path d="M890,53L759,178L923,194Z" fill="#b4d5a9" stroke="#b4d5a9"/><path d="M890,53L923,194L1017,59Z" fill="#9abc8b" stroke="#9abc8b"/><path d="M1017,59L923,194L1040,198Z" fill="#94c498" stroke="#94c498"/><path d="M1017,59L1040,198L1139,171Z" fill="#84b98a" stroke="#84b98a"/><path d="M1017,59L1139,171L1151,35Z" fill="#77a16d" stroke="#77a16d"/><path d="M1151,35L1139,171L1294,68Z" fill="#779561" stroke="#779561"/><path d="M1294,68L1139,171L1264,211Z" fill="#80a475" stroke="#80a475"/><path d="M1294,68L1264,211L1363,187Z" fill="#809a6b" stroke="#809a6b"/><path d="M1294,68L1363,187L1360,87Z" fill="#7c8d56" stroke="#7c8d56"/><path d="M1360,87L1363,187L1484,206Z" fill="#808e5f" stroke="#808e5f"/><path d="M1360,87L1484,206L1522,71Z" fill="#7e8047" stroke="#7e8047"/><path d="M1522,71L1484,206L1524,280Z" fill="#808261" stroke="#808261"/><path d="M1522,71L1524,280L1531,409Z" fill="#80867d" stroke="#80867d"/><path d="M-88,173L-69,794L-78,319Z" fill="#869165" stroke="#869165"/><path d="M-88,173L-78,319L60,278Z" fill="#cfa985" stroke="#cfa985"/><path d="M-88,173L60,278L93,148Z" fill="#d5af78" stroke="#d5af78"/><path d="M93,148L60,278L170,154Z" fill="#debe85" stroke="#debe85"/><path d="M170,154L60,278L182,318Z" fill="#e1c8a2" stroke="#e1c8a2"/><path d="M170,154L182,318L266,196Z" fill="#e9d2a3" stroke="#e9d2a3"/><path d="M266,196L182,318L325,318Z" fill="#e7debb" stroke="#e7debb"/><path d="M266,196L325,318L426,167Z" fill="#f2e4c0" stroke="#f2e4c0"/><path d="M426,167L325,318L450,307Z" fill="#f3eddb" stroke="#f3eddb"/><path d="M426,167L450,307L523,285Z" fill="#f7f3e7" stroke="#f7f3e7"/><path d="M426,167L523,285L530,165Z" fill="#f8f1d9" stroke="#f8f1d9"/><path d="M530,165L523,285L640,272Z" fill="#f5f6f0" stroke="#f5f6f0"/><path d="M530,165L640,272L653,163Z" fill="#ebf0db" stroke="#ebf0db"/><path d="M653,163L640,272L759,178Z" fill="#dbebd5" stroke="#dbebd5"/><path d="M759,178L640,272L792,332Z" fill="#d1ece8" stroke="#d1ece8"/><path d="M759,178L792,332L886,297Z" fill="#bce5df" stroke="#bce5df"/><path d="M759,178L886,297L923,194Z" fill="#b5ddca" stroke="#b5ddca"/><path d="M923,194L886,297L996,278Z" fill="#a2d5cc" stroke="#a2d5cc"/><path d="M923,194L996,278L1040,198Z" fill="#96cbb7" stroke="#96cbb7"/><path d="M1040,198L996,278L1164,308Z" fill="#83c4ba" stroke="#83c4ba"/><path d="M1040,198L1164,308L1139,171Z" fill="#80bba5" stroke="#80bba5"/><path d="M1139,171L1164,308L1264,211Z" fill="#80b19b" stroke="#80b19b"/><path d="M1264,211L1164,308L1254,330Z" fill="#77ada0" stroke="#77ada0"/><path d="M1264,211L1254,330L1386,307Z" fill="#77a495" stroke="#77a495"/><path d="M1264,211L1386,307L1363,187Z" fill="#809d87" stroke="#809d87"/><path d="M1363,187L1386,307L1484,206Z" fill="#80937c" stroke="#80937c"/><path d="M1484,206L1386,307L1524,280Z" fill="#7e8f7f" stroke="#7e8f7f"/><path d="M-78,319L-69,794L-64,678Z" fill="#4c5a28" stroke="#4c5a28"/><path d="M-78,319L-64,678L-58,533Z" fill="#637749" stroke="#637749"/><path d="M-78,319L-58,533L-45,452Z" fill="#859265" stroke="#859265"/><path d="M-78,319L-45,452L60,278Z" fill="#ada980" stroke="#ada980"/><path d="M60,278L-45,452L94,441Z" fill="#a3b287" stroke="#a3b287"/><path d="M60,278L94,441L182,318Z" fill="#bdc199" stroke="#bdc199"/><path d="M182,318L94,441L167,428Z" fill="#acc499" stroke="#acc499"/><path d="M182,318L167,428L308,452Z" fill="#b2d0a5" stroke="#b2d0a5"/><path d="M182,318L308,452L325,318Z" fill="#c7ddb5" stroke="#c7ddb5"/><path d="M325,318L308,452L434,448Z" fill="#b8dfbf" stroke="#b8dfbf"/><path d="M325,318L434,448L450,307Z" fill="#ceead2" stroke="#ceead2"/><path d="M450,307L434,448L541,436Z" fill="#c1eddd" stroke="#c1eddd"/><path d="M450,307L541,436L523,285Z" fill="#d8f4ea" stroke="#d8f4ea"/><path d="M523,285L541,436L643,425Z" fill="#c4f4ec" stroke="#c4f4ec"/><path d="M523,285L643,425L640,272Z" fill="#d2f3ee" stroke="#d2f3ee"/><path d="M640,272L643,425L792,332Z" fill="#b9ece4" stroke="#b9ece4"/><path d="M792,332L643,425L781,421Z" fill="#9be6da" stroke="#9be6da"/><path d="M792,332L781,421L872,450Z" fill="#86ddcf" stroke="#86ddcf"/><path d="M792,332L872,450L886,297Z" fill="#8fddd1" stroke="#8fddd1"/><path d="M886,297L872,450L1022,444Z" fill="#6ed0c0" stroke="#6ed0c0"/><path d="M886,297L1022,444L996,278Z" fill="#7bcec1" stroke="#7bcec1"/><path d="M996,278L1022,444L1164,308Z" fill="#64c2b3" stroke="#64c2b3"/><path d="M1164,308L1022,444L1160,422Z" fill="#4cb8a6" stroke="#4cb8a6"/><path d="M1164,308L1160,422L1254,330Z" fill="#5bb09e" stroke="#5bb09e"/><path d="M1254,330L1160,422L1265,437Z" fill="#4aa894" stroke="#4aa894"/><path d="M1254,330L1265,437L1386,307Z" fill="#59a18e" stroke="#59a18e"/><path d="M1386,307L1265,437L1406,430Z" fill="#4c9983" stroke="#4c9983"/><path d="M1386,307L1406,430L1531,409Z" fill="#508d77" stroke="#508d77"/><path d="M1386,307L1531,409L1524,280Z" fill="#638a79" stroke="#638a79"/><path d="M-45,452L-58,533L43,574Z" fill="#637d4e" stroke="#637d4e"/><path d="M-45,452L43,574L94,441Z" fill="#769062" stroke="#769062"/><path d="M94,441L43,574L193,556Z" fill="#6f9364" stroke="#6f9364"/><path d="M94,441L193,556L167,428Z" fill="#89aa7d" stroke="#89aa7d"/><path d="M167,428L193,556L269,506Z" fill="#86ad80" stroke="#86ad80"/><path d="M167,428L269,506L308,452Z" fill="#99c094" stroke="#99c094"/><path d="M308,452L269,506L399,507Z" fill="#92c09b" stroke="#92c09b"/><path d="M308,452L399,507L434,448Z" fill="#9dccae" stroke="#9dccae"/><path d="M434,448L399,507L557,555Z" fill="#91c9b4" stroke="#91c9b4"/><path d="M434,448L557,555L541,436Z" fill="#9ed5c7" stroke="#9ed5c7"/><path d="M541,436L557,555L628,548Z" fill="#88cabe" stroke="#88cabe"/><path d="M541,436L628,548L643,425Z" fill="#95d6cb" stroke="#95d6cb"/><path d="M643,425L628,548L787,559Z" fill="#71c2b4" stroke="#71c2b4"/><path d="M643,425L787,559L781,421Z" fill="#79cdbe" stroke="#79cdbe"/><path d="M781,421L787,559L872,450Z" fill="#65c4b4" stroke="#65c4b4"/><path d="M872,450L787,559L886,561Z" fill="#48b09d" stroke="#48b09d"/><path d="M872,450L886,561L1022,547Z" fill="#37a793" stroke="#37a793"/><path d="M872,450L1022,547L1022,444Z" fill="#3dae9b" stroke="#3dae9b"/><path d="M1022,444L1022,547L1173,542Z" fill="#189681" stroke="#189681"/><path d="M1022,444L1173,542L1160,422Z" fill="#299e89" stroke="#299e89"/><path d="M1160,422L1173,542L1265,437Z" fill="#2a947e" stroke="#2a947e"/><path d="M1265,437L1173,542L1281,565Z" fill="#157e66" stroke="#157e66"/><path d="M1265,437L1281,565L1392,560Z" fill="#12735a" stroke="#12735a"/><path d="M1265,437L1392,560L1406,430Z" fill="#267c64" stroke="#267c64"/><path d="M1406,430L1392,560L1474,532Z" fill="#18684e" stroke="#18684e"/><path d="M1406,430L1474,532L1531,409Z" fill="#2e735b" stroke="#2e735b"/><path d="M1531,409L1474,532L1530,635Z" fill="#105742" stroke="#105742"/><path d="M-58,533L-64,678L43,574Z" fill="#506231" stroke="#506231"/><path d="M43,574L-64,678L50,663Z" fill="#545a28" stroke="#545a28"/><path d="M43,574L50,663L193,556Z" fill="#5d7746" stroke="#5d7746"/><path d="M193,556L50,663L209,669Z" fill="#637645" stroke="#637645"/><path d="M193,556L209,669L268,674Z" fill="#6b8251" stroke="#6b8251"/><path d="M193,556L268,674L269,506Z" fill="#6d9868" stroke="#6d9868"/><path d="M269,506L268,674L399,507Z" fill="#71a67d" stroke="#71a67d"/><path d="M399,507L268,674L447,637Z" fill="#749d7a" stroke="#749d7a"/><path d="M399,507L447,637L557,555Z" fill="#78b49e" stroke="#78b49e"/><path d="M557,555L447,637L525,630Z" fill="#7aaa98" stroke="#7aaa98"/><path d="M557,555L525,630L651,629Z" fill="#72ab9c" stroke="#72ab9c"/><path d="M557,555L651,629L628,548Z" fill="#6bb1a3" stroke="#6bb1a3"/><path d="M628,548L651,629L787,559Z" fill="#5aab9b" stroke="#5aab9b"/><path d="M787,559L651,629L750,680Z" fill="#529a87" stroke="#529a87"/><path d="M787,559L750,680L865,644Z" fill="#42937e" stroke="#42937e"/><path d="M787,559L865,644L886,561Z" fill="#389a86" stroke="#389a86"/><path d="M886,561L865,644L1048,640Z" fill="#23866f" stroke="#23866f"/><path d="M886,561L1048,640L1022,547Z" fill="#178a74" stroke="#178a74"/><path d="M1022,547L1048,640L1143,642Z" fill="#03755d" stroke="#03755d"/><path d="M1022,547L1143,642L1173,542Z" fill="#007a63" stroke="#007a63"/><path d="M1173,542L1143,642L1273,636Z" fill="#00664b" stroke="#00664b"/><path d="M1173,542L1273,636L1281,565Z" fill="#00684e" stroke="#00684e"/><path d="M1281,565L1273,636L1355,676Z" fill="#005135" stroke="#005135"/><path d="M1281,565L1355,676L1392,560Z" fill="#005438" stroke="#005438"/><path d="M1392,560L1355,676L1530,635Z" fill="#004123" stroke="#004123"/><path d="M1392,560L1530,635L1474,532Z" fill="#004c30" stroke="#004c30"/><path d="M-64,678L-69,794L86,747Z" fill="#52340a" stroke="#52340a"/><path d="M-64,678L86,747L50,663Z" fill="#564a15" stroke="#564a15"/><path d="M50,663L86,747L209,669Z" fill="#5f5b27" stroke="#5f5b27"/><path d="M209,669L86,747L188,814Z" fill="#64522b" stroke="#64522b"/><path d="M209,669L188,814L303,778Z" fill="#6c5c38" stroke="#6c5c38"/><path d="M209,669L303,778L268,674Z" fill="#6f703d" stroke="#6f703d"/><path d="M268,674L303,778L447,637Z" fill="#737c52" stroke="#737c52"/><path d="M447,637L303,778L410,795Z" fill="#757359" stroke="#757359"/><path d="M447,637L410,795L574,779Z" fill="#787c6d" stroke="#787c6d"/><path d="M447,637L574,779L525,630Z" fill="#7a917e" stroke="#7a917e"/><path d="M525,630L574,779L651,629Z" fill="#719280" stroke="#719280"/><path d="M651,629L574,779L626,814Z" fill="#6a7b73" stroke="#6a7b73"/><path d="M651,629L626,814L750,680Z" fill="#5d816e" stroke="#5d816e"/><path d="M750,680L626,814L787,790Z" fill="#536d69" stroke="#536d69"/><path d="M750,680L787,790L865,644Z" fill="#427962" stroke="#427962"/><path d="M865,644L787,790L885,803Z" fill="#38665b" stroke="#38665b"/><path d="M865,644L885,803L1037,773Z" fill="#245d4f" stroke="#245d4f"/><path d="M865,644L1037,773L1048,640Z" fill="#17684e" stroke="#17684e"/><path d="M1048,640L1037,773L1143,642Z" fill="#025b41" stroke="#025b41"/><path d="M1143,642L1037,773L1171,779Z" fill="#004633" stroke="#004633"/><path d="M1143,642L1171,779L1273,636Z" fill="#004b2f" stroke="#004b2f"/><path d="M1273,636L1171,779L1282,785Z" fill="#003521" stroke="#003521"/><path d="M1273,636L1282,785L1355,676Z" fill="#00381a" stroke="#00381a"/><path d="M1355,676L1282,785L1365,791Z" fill="#002313" stroke="#002313"/><path d="M1355,676L1365,791L1489,756Z" fill="#001d09" stroke="#001d09"/><path d="M1355,676L1489,756L1530,635Z" fill="#002707" stroke="#002707"/><path d="M-69,794L188,814L86,747Z" fill="#5a3d1a" stroke="#5a3d1a"/><path d="M188,814L626,814L410,795Z" fill="#756e5d" stroke="#756e5d"/><path d="M188,814L410,795L303,778Z" fill="#716446" stroke="#716446"/><path d="M410,795L626,814L574,779Z" fill="#7b7a7a" stroke="#7b7a7a"/><path d="M626,814L1365,791L885,803Z" fill="#1d534b" stroke="#1d534b"/><path d="M626,814L885,803L787,790Z" fill="#4a6a65" stroke="#4a6a65"/><path d="M885,803L1365,791L1282,785Z" fill="#00362a" stroke="#00362a"/><path d="M885,803L1282,785L1171,779Z" fill="#003e34" stroke="#003e34"/><path d="M885,803L1171,779L1037,773Z" fill="#0c4940" stroke="#0c4940"/></g></svg>